<mxfile modified="2019-12-27T07:27:19.931Z" host="www.draw.io" agent="Mozilla/5.0 (X11; Linux x86_64) AppleWebKit/537.36 (KHTML, like Gecko) Chrome/79.0.3945.88 Safari/537.36" etag="oIl56-DLjI3PH2vL56vu" version="12.4.3" type="github" pages="1">
  <diagram id="WI9T0HZ2pTsCkuznbFz-" name="Page-1">
    <mxGraphModel dx="868" dy="488" grid="1" gridSize="10" guides="1" tooltips="1" connect="1" arrows="1" fold="1" page="1" pageScale="1" pageWidth="1169" pageHeight="827" math="0" shadow="0">
      <root>
        <mxCell id="0"/>
        <mxCell id="1" parent="0"/>
        <mxCell id="wbQet9Np8xLQlqZNyyLJ-6" style="edgeStyle=orthogonalEdgeStyle;rounded=0;orthogonalLoop=1;jettySize=auto;html=1;" parent="1" edge="1">
          <mxGeometry relative="1" as="geometry">
            <mxPoint x="299.5" y="130" as="sourcePoint"/>
            <mxPoint x="499.5" y="130" as="targetPoint"/>
          </mxGeometry>
        </mxCell>
        <mxCell id="wbQet9Np8xLQlqZNyyLJ-13" value="장바구니에 물건을 담는다" style="text;html=1;resizable=0;points=[];align=center;verticalAlign=middle;labelBackgroundColor=#ffffff;" parent="wbQet9Np8xLQlqZNyyLJ-6" vertex="1" connectable="0">
          <mxGeometry x="-0.4043" y="2" relative="1" as="geometry">
            <mxPoint x="40.5" y="-18" as="offset"/>
          </mxGeometry>
        </mxCell>
        <mxCell id="AcxdMaKK0mU5kZiv2lnr-12" value="Browser" style="aspect=fixed;html=1;perimeter=none;align=center;shadow=0;dashed=0;image;fontSize=12;image=img/lib/mscae/Browser.svg;spacingTop=5;" parent="1" vertex="1">
          <mxGeometry x="220" y="110" width="59" height="50" as="geometry"/>
        </mxCell>
        <mxCell id="wbQet9Np8xLQlqZNyyLJ-2" value="Server" style="shape=image;verticalLabelPosition=bottom;labelBackgroundColor=#ffffff;verticalAlign=top;aspect=fixed;imageAspect=0;image=data:image/svg+xml,PHN2ZyB4bWxuczpjYz0iaHR0cDovL2NyZWF0aXZlY29tbW9ucy5vcmcvbnMjIiB4bWxuczpkYz0iaHR0cDovL3B1cmwub3JnL2RjL2VsZW1lbnRzLzEuMS8iIHhtbG5zOmlua3NjYXBlPSJodHRwOi8vd3d3Lmlua3NjYXBlLm9yZy9uYW1lc3BhY2VzL2lua3NjYXBlIiB4bWxuczpyZGY9Imh0dHA6Ly93d3cudzMub3JnLzE5OTkvMDIvMjItcmRmLXN5bnRheC1ucyMiIHhtbG5zOnNvZGlwb2RpPSJodHRwOi8vc29kaXBvZGkuc291cmNlZm9yZ2UubmV0L0RURC9zb2RpcG9kaS0wLmR0ZCIgeG1sbnM6c3ZnPSJodHRwOi8vd3d3LnczLm9yZy8yMDAwL3N2ZyIgeG1sbnM9Imh0dHA6Ly93d3cudzMub3JnLzIwMDAvc3ZnIiB4bWxuczp4bGluaz0iaHR0cDovL3d3dy53My5vcmcvMTk5OS94bGluayIgdmVyc2lvbj0iMS4xIiBpZD0ic3ZnNDk4MzMiIGlua3NjYXBlOnZlcnNpb249IjAuOTIuMyAoMjQwNTU0NiwgMjAxOC0wMy0xMSkiIHNvZGlwb2RpOmRvY25hbWU9ImFzcGVyYV9zZXJ2ZXJfb25fZGVtYW5kLnN2ZyIgeD0iMHB4IiB5PSIwcHgiIHZpZXdCb3g9IjAgMCAxOC4wNyAxOS45NSIgc3R5bGU9ImVuYWJsZS1iYWNrZ3JvdW5kOm5ldyAwIDAgMTguMDcgMTkuOTU7IiB4bWw6c3BhY2U9InByZXNlcnZlIj4mI3hhOzxzb2RpcG9kaTpuYW1lZHZpZXcgYm9yZGVyY29sb3I9IiM2NjY2NjYiIGJvcmRlcm9wYWNpdHk9IjEiIGZpdC1tYXJnaW4tYm90dG9tPSIwIiBmaXQtbWFyZ2luLWxlZnQ9IjAiIGZpdC1tYXJnaW4tcmlnaHQ9IjAiIGZpdC1tYXJnaW4tdG9wPSIwIiBncmlkdG9sZXJhbmNlPSIxMCIgZ3VpZGV0b2xlcmFuY2U9IjEwIiBpZD0ibmFtZWR2aWV3NDk4MzUiIGlua3NjYXBlOmN1cnJlbnQtbGF5ZXI9InN2ZzQ5ODMzIiBpbmtzY2FwZTpjeD0iNS40ODQwNTIzIiBpbmtzY2FwZTpjeT0iMTEuNDc4MTc5IiBpbmtzY2FwZTpwYWdlb3BhY2l0eT0iMCIgaW5rc2NhcGU6cGFnZXNoYWRvdz0iMiIgaW5rc2NhcGU6d2luZG93LWhlaWdodD0iMTAxNyIgaW5rc2NhcGU6d2luZG93LW1heGltaXplZD0iMSIgaW5rc2NhcGU6d2luZG93LXdpZHRoPSIxOTIwIiBpbmtzY2FwZTp3aW5kb3cteD0iLTgiIGlua3NjYXBlOndpbmRvdy15PSItOCIgaW5rc2NhcGU6em9vbT0iMjMuMDUwMjAyIiBvYmplY3R0b2xlcmFuY2U9IjEwIiBwYWdlY29sb3I9IiNmZmZmZmYiIHNob3dncmlkPSJmYWxzZSI+JiN4YTsJPC9zb2RpcG9kaTpuYW1lZHZpZXc+JiN4YTs8ZyBpZD0iZzQ5ODMxIiB0cmFuc2Zvcm09InRyYW5zbGF0ZSgtMS4yNDAzNjYyZS01LDAuMDAzMSkiPiYjeGE7CTx0aXRsZSBpZD0idGl0bGU0OTgxMSI+UGFnZS0xPC90aXRsZT4mI3hhOwk8ZyBpZD0iZ3JvdXA0NzE4LTEiPiYjeGE7CQk8dGl0bGUgaWQ9InRpdGxlNDk4MTMiPkFzcGVyYSBTZXJ2ZXIgT24gRGVtYW5kPC90aXRsZT4mI3hhOwkJPGcgaWQ9InNoYXBlNDcxOS0yIiB0cmFuc2Zvcm09InRyYW5zbGF0ZSgxLjE3MzIzLC0xMC44MDMxKSI+JiN4YTsJCQk8dGl0bGUgaWQ9InRpdGxlNDk4MTUiPlNoZWV0LjQ3MTk8L3RpdGxlPiYjeGE7CQkJPHBhdGggaWQ9InBhdGg0OTgxNyIgaW5rc2NhcGU6Y29ubmVjdG9yLWN1cnZhdHVyZT0iMCIgc3R5bGU9ImZpbGw6IzM5OTlDNjsiIGQ9Ik03LjksMTkuOTVjLTAuMDQsMC0wLjA3LDAtMC4xMSwwICAgICBjLTcuNjYtNC4zOC03LjY2LTQuMzgtNy42Ni00LjM4QzAuMDQsMTUuNTMsMCwxNS40NiwwLDE1LjM3YzAtMC4wOCwwLjA0LTAuMTUsMC4xMy0wLjE5YzcuNTctNC4zNSw3LjU3LTQuMzUsNy41Ny00LjM1ICAgICBjMC4wOS0wLjA0LDAuMTYtMC4wNCwwLjI1LDBjNy42NSw0LjM5LDcuNjUsNC4zOSw3LjY1LDQuMzljMC4wOSwwLjAzLDAuMTIsMC4xMiwwLjEyLDAuMTljMCwwLjA5LTAuMDMsMC4xNi0wLjEyLDAuMjEgICAgIGMtNy42MSw0LjMzLTcuNjEsNC4zMy03LjYxLDQuMzNDNy45NSwxOS45NSw3Ljk1LDE5Ljk1LDcuOSwxOS45NXoiLz4mI3hhOwkJPC9nPiYjeGE7CQk8ZyBpZD0ic2hhcGU0NzIwLTQiPiYjeGE7CQkJPHRpdGxlIGlkPSJ0aXRsZTQ5ODIwIj5TaGVldC40NzIwPC90aXRsZT4mI3hhOwkJCTxwYXRoIGlkPSJwYXRoNDk4MjIiIGlua3NjYXBlOmNvbm5lY3Rvci1jdXJ2YXR1cmU9IjAiIHN0eWxlPSJmaWxsOiM1OUI0RDk7IiBkPSJNNy45OCwxOS45NWMtMC4wNSwwLTAuMDktMC4wMy0wLjEzLTAuMDMgICAgIGMtNy43Mi00LjM4LTcuNzItNC4zOC03LjcyLTQuMzhDMC4wNCwxNS41MSwwLDE1LjQzLDAsMTUuMzVjMC04Ljc3LDAtOC43NywwLTguNzdjMC0wLjA5LDAuMDQtMC4xNywwLjEzLTAuMjEgICAgIGMwLjA4LTAuMDQsMC4xNi0wLjA0LDAuMjUsMGM3LjcyLDQuMzcsNy43Miw0LjM3LDcuNzIsNC4zN2MwLjA4LDAuMDMsMC4xMSwwLjEyLDAuMTEsMC4yYzAsOC43NywwLDguNzcsMCw4Ljc3ICAgICBjMCwwLjA5LTAuMDMsMC4xNi0wLjExLDAuMjFDOC4wNSwxOS45Miw4LjAyLDE5Ljk1LDcuOTgsMTkuOTV6Ii8+JiN4YTsJCTwvZz4mI3hhOwkJPGcgaWQ9InNoYXBlNDcyMS02IiB0cmFuc2Zvcm09InRyYW5zbGF0ZSg5Ljg1NTE3KSI+JiN4YTsJCQk8dGl0bGUgaWQ9InRpdGxlNDk4MjUiPlNoZWV0LjQ3MjE8L3RpdGxlPiYjeGE7CQkJPHBhdGggaWQ9InBhdGg0OTgyNyIgaW5rc2NhcGU6Y29ubmVjdG9yLWN1cnZhdHVyZT0iMCIgc3R5bGU9ImZpbGw6I0FCRDlFQzsiIGQ9Ik0wLjI1LDE5Ljk1Yy0wLjA0LDAtMC4wNy0wLjAzLTAuMTItMC4wMyAgICAgQzAuMDQsMTkuODcsMCwxOS44LDAsMTkuNzFjMC04Ljc2LDAtOC43NiwwLTguNzZjMC0wLjA3LDAuMDQtMC4xNiwwLjEzLTAuMTljNy43Mi00LjM5LDcuNzItNC4zOSw3LjcyLTQuMzkgICAgIGMwLjA4LTAuMDQsMC4xNy0wLjA0LDAuMjUsMGMwLjA0LDAuMDQsMC4xMSwwLjEyLDAuMTEsMC4yMWMwLDguNzYsMCw4Ljc2LDAsOC43NmMwLDAuMDctMC4wNywwLjE2LTAuMTEsMC4xOSAgICAgYy03LjcyLDQuMzktNy43Miw0LjM5LTcuNzIsNC4zOUMwLjM0LDE5LjkyLDAuMjksMTkuOTUsMC4yNSwxOS45NXoiLz4mI3hhOwkJPC9nPiYjeGE7CTwvZz4mI3hhOzwvZz4mI3hhOzwvc3ZnPg==;" parent="1" vertex="1">
          <mxGeometry x="520" y="110" width="45" height="50" as="geometry"/>
        </mxCell>
        <mxCell id="wbQet9Np8xLQlqZNyyLJ-8" style="edgeStyle=orthogonalEdgeStyle;rounded=0;orthogonalLoop=1;jettySize=auto;html=1;" parent="1" edge="1">
          <mxGeometry relative="1" as="geometry">
            <mxPoint x="499.5" y="150" as="sourcePoint"/>
            <mxPoint x="299.5" y="150" as="targetPoint"/>
          </mxGeometry>
        </mxCell>
        <mxCell id="wbQet9Np8xLQlqZNyyLJ-14" value="OK" style="text;html=1;resizable=0;points=[];align=center;verticalAlign=middle;labelBackgroundColor=#ffffff;" parent="wbQet9Np8xLQlqZNyyLJ-8" vertex="1" connectable="0">
          <mxGeometry x="-0.2157" y="5" relative="1" as="geometry">
            <mxPoint x="-21.5" y="15" as="offset"/>
          </mxGeometry>
        </mxCell>
        <mxCell id="wbQet9Np8xLQlqZNyyLJ-15" style="edgeStyle=orthogonalEdgeStyle;rounded=0;orthogonalLoop=1;jettySize=auto;html=1;" parent="1" edge="1">
          <mxGeometry relative="1" as="geometry">
            <mxPoint x="299.5" y="230" as="sourcePoint"/>
            <mxPoint x="499.5" y="230" as="targetPoint"/>
          </mxGeometry>
        </mxCell>
        <mxCell id="wbQet9Np8xLQlqZNyyLJ-16" value="장바구니 물건을 구매한다" style="text;html=1;resizable=0;points=[];align=center;verticalAlign=middle;labelBackgroundColor=#ffffff;" parent="wbQet9Np8xLQlqZNyyLJ-15" vertex="1" connectable="0">
          <mxGeometry x="-0.4043" y="2" relative="1" as="geometry">
            <mxPoint x="40.5" y="-18" as="offset"/>
          </mxGeometry>
        </mxCell>
        <mxCell id="wbQet9Np8xLQlqZNyyLJ-17" value="Browser" style="aspect=fixed;html=1;perimeter=none;align=center;shadow=0;dashed=0;image;fontSize=12;image=img/lib/mscae/Browser.svg;spacingTop=5;" parent="1" vertex="1">
          <mxGeometry x="220" y="210" width="59" height="50" as="geometry"/>
        </mxCell>
        <mxCell id="wbQet9Np8xLQlqZNyyLJ-18" value="Server" style="shape=image;verticalLabelPosition=bottom;labelBackgroundColor=#ffffff;verticalAlign=top;aspect=fixed;imageAspect=0;image=data:image/svg+xml,PHN2ZyB4bWxuczpjYz0iaHR0cDovL2NyZWF0aXZlY29tbW9ucy5vcmcvbnMjIiB4bWxuczpkYz0iaHR0cDovL3B1cmwub3JnL2RjL2VsZW1lbnRzLzEuMS8iIHhtbG5zOmlua3NjYXBlPSJodHRwOi8vd3d3Lmlua3NjYXBlLm9yZy9uYW1lc3BhY2VzL2lua3NjYXBlIiB4bWxuczpyZGY9Imh0dHA6Ly93d3cudzMub3JnLzE5OTkvMDIvMjItcmRmLXN5bnRheC1ucyMiIHhtbG5zOnNvZGlwb2RpPSJodHRwOi8vc29kaXBvZGkuc291cmNlZm9yZ2UubmV0L0RURC9zb2RpcG9kaS0wLmR0ZCIgeG1sbnM6c3ZnPSJodHRwOi8vd3d3LnczLm9yZy8yMDAwL3N2ZyIgeG1sbnM9Imh0dHA6Ly93d3cudzMub3JnLzIwMDAvc3ZnIiB4bWxuczp4bGluaz0iaHR0cDovL3d3dy53My5vcmcvMTk5OS94bGluayIgdmVyc2lvbj0iMS4xIiBpZD0ic3ZnNDk4MzMiIGlua3NjYXBlOnZlcnNpb249IjAuOTIuMyAoMjQwNTU0NiwgMjAxOC0wMy0xMSkiIHNvZGlwb2RpOmRvY25hbWU9ImFzcGVyYV9zZXJ2ZXJfb25fZGVtYW5kLnN2ZyIgeD0iMHB4IiB5PSIwcHgiIHZpZXdCb3g9IjAgMCAxOC4wNyAxOS45NSIgc3R5bGU9ImVuYWJsZS1iYWNrZ3JvdW5kOm5ldyAwIDAgMTguMDcgMTkuOTU7IiB4bWw6c3BhY2U9InByZXNlcnZlIj4mI3hhOzxzb2RpcG9kaTpuYW1lZHZpZXcgYm9yZGVyY29sb3I9IiM2NjY2NjYiIGJvcmRlcm9wYWNpdHk9IjEiIGZpdC1tYXJnaW4tYm90dG9tPSIwIiBmaXQtbWFyZ2luLWxlZnQ9IjAiIGZpdC1tYXJnaW4tcmlnaHQ9IjAiIGZpdC1tYXJnaW4tdG9wPSIwIiBncmlkdG9sZXJhbmNlPSIxMCIgZ3VpZGV0b2xlcmFuY2U9IjEwIiBpZD0ibmFtZWR2aWV3NDk4MzUiIGlua3NjYXBlOmN1cnJlbnQtbGF5ZXI9InN2ZzQ5ODMzIiBpbmtzY2FwZTpjeD0iNS40ODQwNTIzIiBpbmtzY2FwZTpjeT0iMTEuNDc4MTc5IiBpbmtzY2FwZTpwYWdlb3BhY2l0eT0iMCIgaW5rc2NhcGU6cGFnZXNoYWRvdz0iMiIgaW5rc2NhcGU6d2luZG93LWhlaWdodD0iMTAxNyIgaW5rc2NhcGU6d2luZG93LW1heGltaXplZD0iMSIgaW5rc2NhcGU6d2luZG93LXdpZHRoPSIxOTIwIiBpbmtzY2FwZTp3aW5kb3cteD0iLTgiIGlua3NjYXBlOndpbmRvdy15PSItOCIgaW5rc2NhcGU6em9vbT0iMjMuMDUwMjAyIiBvYmplY3R0b2xlcmFuY2U9IjEwIiBwYWdlY29sb3I9IiNmZmZmZmYiIHNob3dncmlkPSJmYWxzZSI+JiN4YTsJPC9zb2RpcG9kaTpuYW1lZHZpZXc+JiN4YTs8ZyBpZD0iZzQ5ODMxIiB0cmFuc2Zvcm09InRyYW5zbGF0ZSgtMS4yNDAzNjYyZS01LDAuMDAzMSkiPiYjeGE7CTx0aXRsZSBpZD0idGl0bGU0OTgxMSI+UGFnZS0xPC90aXRsZT4mI3hhOwk8ZyBpZD0iZ3JvdXA0NzE4LTEiPiYjeGE7CQk8dGl0bGUgaWQ9InRpdGxlNDk4MTMiPkFzcGVyYSBTZXJ2ZXIgT24gRGVtYW5kPC90aXRsZT4mI3hhOwkJPGcgaWQ9InNoYXBlNDcxOS0yIiB0cmFuc2Zvcm09InRyYW5zbGF0ZSgxLjE3MzIzLC0xMC44MDMxKSI+JiN4YTsJCQk8dGl0bGUgaWQ9InRpdGxlNDk4MTUiPlNoZWV0LjQ3MTk8L3RpdGxlPiYjeGE7CQkJPHBhdGggaWQ9InBhdGg0OTgxNyIgaW5rc2NhcGU6Y29ubmVjdG9yLWN1cnZhdHVyZT0iMCIgc3R5bGU9ImZpbGw6IzM5OTlDNjsiIGQ9Ik03LjksMTkuOTVjLTAuMDQsMC0wLjA3LDAtMC4xMSwwICAgICBjLTcuNjYtNC4zOC03LjY2LTQuMzgtNy42Ni00LjM4QzAuMDQsMTUuNTMsMCwxNS40NiwwLDE1LjM3YzAtMC4wOCwwLjA0LTAuMTUsMC4xMy0wLjE5YzcuNTctNC4zNSw3LjU3LTQuMzUsNy41Ny00LjM1ICAgICBjMC4wOS0wLjA0LDAuMTYtMC4wNCwwLjI1LDBjNy42NSw0LjM5LDcuNjUsNC4zOSw3LjY1LDQuMzljMC4wOSwwLjAzLDAuMTIsMC4xMiwwLjEyLDAuMTljMCwwLjA5LTAuMDMsMC4xNi0wLjEyLDAuMjEgICAgIGMtNy42MSw0LjMzLTcuNjEsNC4zMy03LjYxLDQuMzNDNy45NSwxOS45NSw3Ljk1LDE5Ljk1LDcuOSwxOS45NXoiLz4mI3hhOwkJPC9nPiYjeGE7CQk8ZyBpZD0ic2hhcGU0NzIwLTQiPiYjeGE7CQkJPHRpdGxlIGlkPSJ0aXRsZTQ5ODIwIj5TaGVldC40NzIwPC90aXRsZT4mI3hhOwkJCTxwYXRoIGlkPSJwYXRoNDk4MjIiIGlua3NjYXBlOmNvbm5lY3Rvci1jdXJ2YXR1cmU9IjAiIHN0eWxlPSJmaWxsOiM1OUI0RDk7IiBkPSJNNy45OCwxOS45NWMtMC4wNSwwLTAuMDktMC4wMy0wLjEzLTAuMDMgICAgIGMtNy43Mi00LjM4LTcuNzItNC4zOC03LjcyLTQuMzhDMC4wNCwxNS41MSwwLDE1LjQzLDAsMTUuMzVjMC04Ljc3LDAtOC43NywwLTguNzdjMC0wLjA5LDAuMDQtMC4xNywwLjEzLTAuMjEgICAgIGMwLjA4LTAuMDQsMC4xNi0wLjA0LDAuMjUsMGM3LjcyLDQuMzcsNy43Miw0LjM3LDcuNzIsNC4zN2MwLjA4LDAuMDMsMC4xMSwwLjEyLDAuMTEsMC4yYzAsOC43NywwLDguNzcsMCw4Ljc3ICAgICBjMCwwLjA5LTAuMDMsMC4xNi0wLjExLDAuMjFDOC4wNSwxOS45Miw4LjAyLDE5Ljk1LDcuOTgsMTkuOTV6Ii8+JiN4YTsJCTwvZz4mI3hhOwkJPGcgaWQ9InNoYXBlNDcyMS02IiB0cmFuc2Zvcm09InRyYW5zbGF0ZSg5Ljg1NTE3KSI+JiN4YTsJCQk8dGl0bGUgaWQ9InRpdGxlNDk4MjUiPlNoZWV0LjQ3MjE8L3RpdGxlPiYjeGE7CQkJPHBhdGggaWQ9InBhdGg0OTgyNyIgaW5rc2NhcGU6Y29ubmVjdG9yLWN1cnZhdHVyZT0iMCIgc3R5bGU9ImZpbGw6I0FCRDlFQzsiIGQ9Ik0wLjI1LDE5Ljk1Yy0wLjA0LDAtMC4wNy0wLjAzLTAuMTItMC4wMyAgICAgQzAuMDQsMTkuODcsMCwxOS44LDAsMTkuNzFjMC04Ljc2LDAtOC43NiwwLTguNzZjMC0wLjA3LDAuMDQtMC4xNiwwLjEzLTAuMTljNy43Mi00LjM5LDcuNzItNC4zOSw3LjcyLTQuMzkgICAgIGMwLjA4LTAuMDQsMC4xNy0wLjA0LDAuMjUsMGMwLjA0LDAuMDQsMC4xMSwwLjEyLDAuMTEsMC4yMWMwLDguNzYsMCw4Ljc2LDAsOC43NmMwLDAuMDctMC4wNywwLjE2LTAuMTEsMC4xOSAgICAgYy03LjcyLDQuMzktNy43Miw0LjM5LTcuNzIsNC4zOUMwLjM0LDE5LjkyLDAuMjksMTkuOTUsMC4yNSwxOS45NXoiLz4mI3hhOwkJPC9nPiYjeGE7CTwvZz4mI3hhOzwvZz4mI3hhOzwvc3ZnPg==;" parent="1" vertex="1">
          <mxGeometry x="520" y="210" width="45" height="50" as="geometry"/>
        </mxCell>
        <mxCell id="wbQet9Np8xLQlqZNyyLJ-19" style="edgeStyle=orthogonalEdgeStyle;rounded=0;orthogonalLoop=1;jettySize=auto;html=1;" parent="1" edge="1">
          <mxGeometry relative="1" as="geometry">
            <mxPoint x="499.5" y="250" as="sourcePoint"/>
            <mxPoint x="299.5" y="250" as="targetPoint"/>
          </mxGeometry>
        </mxCell>
        <mxCell id="wbQet9Np8xLQlqZNyyLJ-20" value="누구시죠??" style="text;html=1;resizable=0;points=[];align=center;verticalAlign=middle;labelBackgroundColor=#ffffff;" parent="wbQet9Np8xLQlqZNyyLJ-19" vertex="1" connectable="0">
          <mxGeometry x="-0.2157" y="5" relative="1" as="geometry">
            <mxPoint x="-21.5" y="15" as="offset"/>
          </mxGeometry>
        </mxCell>
        <mxCell id="wbQet9Np8xLQlqZNyyLJ-21" style="edgeStyle=orthogonalEdgeStyle;rounded=0;orthogonalLoop=1;jettySize=auto;html=1;" parent="1" edge="1">
          <mxGeometry relative="1" as="geometry">
            <mxPoint x="299.5" y="358" as="sourcePoint"/>
            <mxPoint x="499.5" y="358" as="targetPoint"/>
          </mxGeometry>
        </mxCell>
        <mxCell id="wbQet9Np8xLQlqZNyyLJ-22" value="장바구니에 물건을 담는다" style="text;html=1;resizable=0;points=[];align=center;verticalAlign=middle;labelBackgroundColor=#ffffff;" parent="wbQet9Np8xLQlqZNyyLJ-21" vertex="1" connectable="0">
          <mxGeometry x="-0.4043" y="2" relative="1" as="geometry">
            <mxPoint x="40.5" y="-18" as="offset"/>
          </mxGeometry>
        </mxCell>
        <mxCell id="wbQet9Np8xLQlqZNyyLJ-23" value="Browser" style="aspect=fixed;html=1;perimeter=none;align=center;shadow=0;dashed=0;image;fontSize=12;image=img/lib/mscae/Browser.svg;spacingTop=5;" parent="1" vertex="1">
          <mxGeometry x="220" y="338" width="59" height="50" as="geometry"/>
        </mxCell>
        <mxCell id="wbQet9Np8xLQlqZNyyLJ-24" value="Server" style="shape=image;verticalLabelPosition=bottom;labelBackgroundColor=#ffffff;verticalAlign=top;aspect=fixed;imageAspect=0;image=data:image/svg+xml,PHN2ZyB4bWxuczpjYz0iaHR0cDovL2NyZWF0aXZlY29tbW9ucy5vcmcvbnMjIiB4bWxuczpkYz0iaHR0cDovL3B1cmwub3JnL2RjL2VsZW1lbnRzLzEuMS8iIHhtbG5zOmlua3NjYXBlPSJodHRwOi8vd3d3Lmlua3NjYXBlLm9yZy9uYW1lc3BhY2VzL2lua3NjYXBlIiB4bWxuczpyZGY9Imh0dHA6Ly93d3cudzMub3JnLzE5OTkvMDIvMjItcmRmLXN5bnRheC1ucyMiIHhtbG5zOnNvZGlwb2RpPSJodHRwOi8vc29kaXBvZGkuc291cmNlZm9yZ2UubmV0L0RURC9zb2RpcG9kaS0wLmR0ZCIgeG1sbnM6c3ZnPSJodHRwOi8vd3d3LnczLm9yZy8yMDAwL3N2ZyIgeG1sbnM9Imh0dHA6Ly93d3cudzMub3JnLzIwMDAvc3ZnIiB4bWxuczp4bGluaz0iaHR0cDovL3d3dy53My5vcmcvMTk5OS94bGluayIgdmVyc2lvbj0iMS4xIiBpZD0ic3ZnNDk4MzMiIGlua3NjYXBlOnZlcnNpb249IjAuOTIuMyAoMjQwNTU0NiwgMjAxOC0wMy0xMSkiIHNvZGlwb2RpOmRvY25hbWU9ImFzcGVyYV9zZXJ2ZXJfb25fZGVtYW5kLnN2ZyIgeD0iMHB4IiB5PSIwcHgiIHZpZXdCb3g9IjAgMCAxOC4wNyAxOS45NSIgc3R5bGU9ImVuYWJsZS1iYWNrZ3JvdW5kOm5ldyAwIDAgMTguMDcgMTkuOTU7IiB4bWw6c3BhY2U9InByZXNlcnZlIj4mI3hhOzxzb2RpcG9kaTpuYW1lZHZpZXcgYm9yZGVyY29sb3I9IiM2NjY2NjYiIGJvcmRlcm9wYWNpdHk9IjEiIGZpdC1tYXJnaW4tYm90dG9tPSIwIiBmaXQtbWFyZ2luLWxlZnQ9IjAiIGZpdC1tYXJnaW4tcmlnaHQ9IjAiIGZpdC1tYXJnaW4tdG9wPSIwIiBncmlkdG9sZXJhbmNlPSIxMCIgZ3VpZGV0b2xlcmFuY2U9IjEwIiBpZD0ibmFtZWR2aWV3NDk4MzUiIGlua3NjYXBlOmN1cnJlbnQtbGF5ZXI9InN2ZzQ5ODMzIiBpbmtzY2FwZTpjeD0iNS40ODQwNTIzIiBpbmtzY2FwZTpjeT0iMTEuNDc4MTc5IiBpbmtzY2FwZTpwYWdlb3BhY2l0eT0iMCIgaW5rc2NhcGU6cGFnZXNoYWRvdz0iMiIgaW5rc2NhcGU6d2luZG93LWhlaWdodD0iMTAxNyIgaW5rc2NhcGU6d2luZG93LW1heGltaXplZD0iMSIgaW5rc2NhcGU6d2luZG93LXdpZHRoPSIxOTIwIiBpbmtzY2FwZTp3aW5kb3cteD0iLTgiIGlua3NjYXBlOndpbmRvdy15PSItOCIgaW5rc2NhcGU6em9vbT0iMjMuMDUwMjAyIiBvYmplY3R0b2xlcmFuY2U9IjEwIiBwYWdlY29sb3I9IiNmZmZmZmYiIHNob3dncmlkPSJmYWxzZSI+JiN4YTsJPC9zb2RpcG9kaTpuYW1lZHZpZXc+JiN4YTs8ZyBpZD0iZzQ5ODMxIiB0cmFuc2Zvcm09InRyYW5zbGF0ZSgtMS4yNDAzNjYyZS01LDAuMDAzMSkiPiYjeGE7CTx0aXRsZSBpZD0idGl0bGU0OTgxMSI+UGFnZS0xPC90aXRsZT4mI3hhOwk8ZyBpZD0iZ3JvdXA0NzE4LTEiPiYjeGE7CQk8dGl0bGUgaWQ9InRpdGxlNDk4MTMiPkFzcGVyYSBTZXJ2ZXIgT24gRGVtYW5kPC90aXRsZT4mI3hhOwkJPGcgaWQ9InNoYXBlNDcxOS0yIiB0cmFuc2Zvcm09InRyYW5zbGF0ZSgxLjE3MzIzLC0xMC44MDMxKSI+JiN4YTsJCQk8dGl0bGUgaWQ9InRpdGxlNDk4MTUiPlNoZWV0LjQ3MTk8L3RpdGxlPiYjeGE7CQkJPHBhdGggaWQ9InBhdGg0OTgxNyIgaW5rc2NhcGU6Y29ubmVjdG9yLWN1cnZhdHVyZT0iMCIgc3R5bGU9ImZpbGw6IzM5OTlDNjsiIGQ9Ik03LjksMTkuOTVjLTAuMDQsMC0wLjA3LDAtMC4xMSwwICAgICBjLTcuNjYtNC4zOC03LjY2LTQuMzgtNy42Ni00LjM4QzAuMDQsMTUuNTMsMCwxNS40NiwwLDE1LjM3YzAtMC4wOCwwLjA0LTAuMTUsMC4xMy0wLjE5YzcuNTctNC4zNSw3LjU3LTQuMzUsNy41Ny00LjM1ICAgICBjMC4wOS0wLjA0LDAuMTYtMC4wNCwwLjI1LDBjNy42NSw0LjM5LDcuNjUsNC4zOSw3LjY1LDQuMzljMC4wOSwwLjAzLDAuMTIsMC4xMiwwLjEyLDAuMTljMCwwLjA5LTAuMDMsMC4xNi0wLjEyLDAuMjEgICAgIGMtNy42MSw0LjMzLTcuNjEsNC4zMy03LjYxLDQuMzNDNy45NSwxOS45NSw3Ljk1LDE5Ljk1LDcuOSwxOS45NXoiLz4mI3hhOwkJPC9nPiYjeGE7CQk8ZyBpZD0ic2hhcGU0NzIwLTQiPiYjeGE7CQkJPHRpdGxlIGlkPSJ0aXRsZTQ5ODIwIj5TaGVldC40NzIwPC90aXRsZT4mI3hhOwkJCTxwYXRoIGlkPSJwYXRoNDk4MjIiIGlua3NjYXBlOmNvbm5lY3Rvci1jdXJ2YXR1cmU9IjAiIHN0eWxlPSJmaWxsOiM1OUI0RDk7IiBkPSJNNy45OCwxOS45NWMtMC4wNSwwLTAuMDktMC4wMy0wLjEzLTAuMDMgICAgIGMtNy43Mi00LjM4LTcuNzItNC4zOC03LjcyLTQuMzhDMC4wNCwxNS41MSwwLDE1LjQzLDAsMTUuMzVjMC04Ljc3LDAtOC43NywwLTguNzdjMC0wLjA5LDAuMDQtMC4xNywwLjEzLTAuMjEgICAgIGMwLjA4LTAuMDQsMC4xNi0wLjA0LDAuMjUsMGM3LjcyLDQuMzcsNy43Miw0LjM3LDcuNzIsNC4zN2MwLjA4LDAuMDMsMC4xMSwwLjEyLDAuMTEsMC4yYzAsOC43NywwLDguNzcsMCw4Ljc3ICAgICBjMCwwLjA5LTAuMDMsMC4xNi0wLjExLDAuMjFDOC4wNSwxOS45Miw4LjAyLDE5Ljk1LDcuOTgsMTkuOTV6Ii8+JiN4YTsJCTwvZz4mI3hhOwkJPGcgaWQ9InNoYXBlNDcyMS02IiB0cmFuc2Zvcm09InRyYW5zbGF0ZSg5Ljg1NTE3KSI+JiN4YTsJCQk8dGl0bGUgaWQ9InRpdGxlNDk4MjUiPlNoZWV0LjQ3MjE8L3RpdGxlPiYjeGE7CQkJPHBhdGggaWQ9InBhdGg0OTgyNyIgaW5rc2NhcGU6Y29ubmVjdG9yLWN1cnZhdHVyZT0iMCIgc3R5bGU9ImZpbGw6I0FCRDlFQzsiIGQ9Ik0wLjI1LDE5Ljk1Yy0wLjA0LDAtMC4wNy0wLjAzLTAuMTItMC4wMyAgICAgQzAuMDQsMTkuODcsMCwxOS44LDAsMTkuNzFjMC04Ljc2LDAtOC43NiwwLTguNzZjMC0wLjA3LDAuMDQtMC4xNiwwLjEzLTAuMTljNy43Mi00LjM5LDcuNzItNC4zOSw3LjcyLTQuMzkgICAgIGMwLjA4LTAuMDQsMC4xNy0wLjA0LDAuMjUsMGMwLjA0LDAuMDQsMC4xMSwwLjEyLDAuMTEsMC4yMWMwLDguNzYsMCw4Ljc2LDAsOC43NmMwLDAuMDctMC4wNywwLjE2LTAuMTEsMC4xOSAgICAgYy03LjcyLDQuMzktNy43Miw0LjM5LTcuNzIsNC4zOUMwLjM0LDE5LjkyLDAuMjksMTkuOTUsMC4yNSwxOS45NXoiLz4mI3hhOwkJPC9nPiYjeGE7CTwvZz4mI3hhOzwvZz4mI3hhOzwvc3ZnPg==;" parent="1" vertex="1">
          <mxGeometry x="520" y="338" width="45" height="50" as="geometry"/>
        </mxCell>
        <mxCell id="wbQet9Np8xLQlqZNyyLJ-25" style="edgeStyle=orthogonalEdgeStyle;rounded=0;orthogonalLoop=1;jettySize=auto;html=1;" parent="1" edge="1">
          <mxGeometry relative="1" as="geometry">
            <mxPoint x="499.5" y="378" as="sourcePoint"/>
            <mxPoint x="299.5" y="378" as="targetPoint"/>
          </mxGeometry>
        </mxCell>
        <mxCell id="wbQet9Np8xLQlqZNyyLJ-26" value="OK" style="text;html=1;resizable=0;points=[];align=center;verticalAlign=middle;labelBackgroundColor=#ffffff;" parent="wbQet9Np8xLQlqZNyyLJ-25" vertex="1" connectable="0">
          <mxGeometry x="-0.2157" y="5" relative="1" as="geometry">
            <mxPoint x="-21.5" y="15" as="offset"/>
          </mxGeometry>
        </mxCell>
        <mxCell id="wbQet9Np8xLQlqZNyyLJ-27" style="edgeStyle=orthogonalEdgeStyle;rounded=0;orthogonalLoop=1;jettySize=auto;html=1;" parent="1" edge="1">
          <mxGeometry relative="1" as="geometry">
            <mxPoint x="299.5" y="458" as="sourcePoint"/>
            <mxPoint x="499.5" y="458" as="targetPoint"/>
          </mxGeometry>
        </mxCell>
        <mxCell id="wbQet9Np8xLQlqZNyyLJ-28" value="장바구니 물건을 구매한다" style="text;html=1;resizable=0;points=[];align=center;verticalAlign=middle;labelBackgroundColor=#ffffff;" parent="wbQet9Np8xLQlqZNyyLJ-27" vertex="1" connectable="0">
          <mxGeometry x="-0.4043" y="2" relative="1" as="geometry">
            <mxPoint x="40.5" y="-18" as="offset"/>
          </mxGeometry>
        </mxCell>
        <mxCell id="wbQet9Np8xLQlqZNyyLJ-29" value="Browser" style="aspect=fixed;html=1;perimeter=none;align=center;shadow=0;dashed=0;image;fontSize=12;image=img/lib/mscae/Browser.svg;spacingTop=5;" parent="1" vertex="1">
          <mxGeometry x="220" y="438" width="59" height="50" as="geometry"/>
        </mxCell>
        <mxCell id="wbQet9Np8xLQlqZNyyLJ-30" value="Server" style="shape=image;verticalLabelPosition=bottom;labelBackgroundColor=#ffffff;verticalAlign=top;aspect=fixed;imageAspect=0;image=data:image/svg+xml,PHN2ZyB4bWxuczpjYz0iaHR0cDovL2NyZWF0aXZlY29tbW9ucy5vcmcvbnMjIiB4bWxuczpkYz0iaHR0cDovL3B1cmwub3JnL2RjL2VsZW1lbnRzLzEuMS8iIHhtbG5zOmlua3NjYXBlPSJodHRwOi8vd3d3Lmlua3NjYXBlLm9yZy9uYW1lc3BhY2VzL2lua3NjYXBlIiB4bWxuczpyZGY9Imh0dHA6Ly93d3cudzMub3JnLzE5OTkvMDIvMjItcmRmLXN5bnRheC1ucyMiIHhtbG5zOnNvZGlwb2RpPSJodHRwOi8vc29kaXBvZGkuc291cmNlZm9yZ2UubmV0L0RURC9zb2RpcG9kaS0wLmR0ZCIgeG1sbnM6c3ZnPSJodHRwOi8vd3d3LnczLm9yZy8yMDAwL3N2ZyIgeG1sbnM9Imh0dHA6Ly93d3cudzMub3JnLzIwMDAvc3ZnIiB4bWxuczp4bGluaz0iaHR0cDovL3d3dy53My5vcmcvMTk5OS94bGluayIgdmVyc2lvbj0iMS4xIiBpZD0ic3ZnNDk4MzMiIGlua3NjYXBlOnZlcnNpb249IjAuOTIuMyAoMjQwNTU0NiwgMjAxOC0wMy0xMSkiIHNvZGlwb2RpOmRvY25hbWU9ImFzcGVyYV9zZXJ2ZXJfb25fZGVtYW5kLnN2ZyIgeD0iMHB4IiB5PSIwcHgiIHZpZXdCb3g9IjAgMCAxOC4wNyAxOS45NSIgc3R5bGU9ImVuYWJsZS1iYWNrZ3JvdW5kOm5ldyAwIDAgMTguMDcgMTkuOTU7IiB4bWw6c3BhY2U9InByZXNlcnZlIj4mI3hhOzxzb2RpcG9kaTpuYW1lZHZpZXcgYm9yZGVyY29sb3I9IiM2NjY2NjYiIGJvcmRlcm9wYWNpdHk9IjEiIGZpdC1tYXJnaW4tYm90dG9tPSIwIiBmaXQtbWFyZ2luLWxlZnQ9IjAiIGZpdC1tYXJnaW4tcmlnaHQ9IjAiIGZpdC1tYXJnaW4tdG9wPSIwIiBncmlkdG9sZXJhbmNlPSIxMCIgZ3VpZGV0b2xlcmFuY2U9IjEwIiBpZD0ibmFtZWR2aWV3NDk4MzUiIGlua3NjYXBlOmN1cnJlbnQtbGF5ZXI9InN2ZzQ5ODMzIiBpbmtzY2FwZTpjeD0iNS40ODQwNTIzIiBpbmtzY2FwZTpjeT0iMTEuNDc4MTc5IiBpbmtzY2FwZTpwYWdlb3BhY2l0eT0iMCIgaW5rc2NhcGU6cGFnZXNoYWRvdz0iMiIgaW5rc2NhcGU6d2luZG93LWhlaWdodD0iMTAxNyIgaW5rc2NhcGU6d2luZG93LW1heGltaXplZD0iMSIgaW5rc2NhcGU6d2luZG93LXdpZHRoPSIxOTIwIiBpbmtzY2FwZTp3aW5kb3cteD0iLTgiIGlua3NjYXBlOndpbmRvdy15PSItOCIgaW5rc2NhcGU6em9vbT0iMjMuMDUwMjAyIiBvYmplY3R0b2xlcmFuY2U9IjEwIiBwYWdlY29sb3I9IiNmZmZmZmYiIHNob3dncmlkPSJmYWxzZSI+JiN4YTsJPC9zb2RpcG9kaTpuYW1lZHZpZXc+JiN4YTs8ZyBpZD0iZzQ5ODMxIiB0cmFuc2Zvcm09InRyYW5zbGF0ZSgtMS4yNDAzNjYyZS01LDAuMDAzMSkiPiYjeGE7CTx0aXRsZSBpZD0idGl0bGU0OTgxMSI+UGFnZS0xPC90aXRsZT4mI3hhOwk8ZyBpZD0iZ3JvdXA0NzE4LTEiPiYjeGE7CQk8dGl0bGUgaWQ9InRpdGxlNDk4MTMiPkFzcGVyYSBTZXJ2ZXIgT24gRGVtYW5kPC90aXRsZT4mI3hhOwkJPGcgaWQ9InNoYXBlNDcxOS0yIiB0cmFuc2Zvcm09InRyYW5zbGF0ZSgxLjE3MzIzLC0xMC44MDMxKSI+JiN4YTsJCQk8dGl0bGUgaWQ9InRpdGxlNDk4MTUiPlNoZWV0LjQ3MTk8L3RpdGxlPiYjeGE7CQkJPHBhdGggaWQ9InBhdGg0OTgxNyIgaW5rc2NhcGU6Y29ubmVjdG9yLWN1cnZhdHVyZT0iMCIgc3R5bGU9ImZpbGw6IzM5OTlDNjsiIGQ9Ik03LjksMTkuOTVjLTAuMDQsMC0wLjA3LDAtMC4xMSwwICAgICBjLTcuNjYtNC4zOC03LjY2LTQuMzgtNy42Ni00LjM4QzAuMDQsMTUuNTMsMCwxNS40NiwwLDE1LjM3YzAtMC4wOCwwLjA0LTAuMTUsMC4xMy0wLjE5YzcuNTctNC4zNSw3LjU3LTQuMzUsNy41Ny00LjM1ICAgICBjMC4wOS0wLjA0LDAuMTYtMC4wNCwwLjI1LDBjNy42NSw0LjM5LDcuNjUsNC4zOSw3LjY1LDQuMzljMC4wOSwwLjAzLDAuMTIsMC4xMiwwLjEyLDAuMTljMCwwLjA5LTAuMDMsMC4xNi0wLjEyLDAuMjEgICAgIGMtNy42MSw0LjMzLTcuNjEsNC4zMy03LjYxLDQuMzNDNy45NSwxOS45NSw3Ljk1LDE5Ljk1LDcuOSwxOS45NXoiLz4mI3hhOwkJPC9nPiYjeGE7CQk8ZyBpZD0ic2hhcGU0NzIwLTQiPiYjeGE7CQkJPHRpdGxlIGlkPSJ0aXRsZTQ5ODIwIj5TaGVldC40NzIwPC90aXRsZT4mI3hhOwkJCTxwYXRoIGlkPSJwYXRoNDk4MjIiIGlua3NjYXBlOmNvbm5lY3Rvci1jdXJ2YXR1cmU9IjAiIHN0eWxlPSJmaWxsOiM1OUI0RDk7IiBkPSJNNy45OCwxOS45NWMtMC4wNSwwLTAuMDktMC4wMy0wLjEzLTAuMDMgICAgIGMtNy43Mi00LjM4LTcuNzItNC4zOC03LjcyLTQuMzhDMC4wNCwxNS41MSwwLDE1LjQzLDAsMTUuMzVjMC04Ljc3LDAtOC43NywwLTguNzdjMC0wLjA5LDAuMDQtMC4xNywwLjEzLTAuMjEgICAgIGMwLjA4LTAuMDQsMC4xNi0wLjA0LDAuMjUsMGM3LjcyLDQuMzcsNy43Miw0LjM3LDcuNzIsNC4zN2MwLjA4LDAuMDMsMC4xMSwwLjEyLDAuMTEsMC4yYzAsOC43NywwLDguNzcsMCw4Ljc3ICAgICBjMCwwLjA5LTAuMDMsMC4xNi0wLjExLDAuMjFDOC4wNSwxOS45Miw4LjAyLDE5Ljk1LDcuOTgsMTkuOTV6Ii8+JiN4YTsJCTwvZz4mI3hhOwkJPGcgaWQ9InNoYXBlNDcyMS02IiB0cmFuc2Zvcm09InRyYW5zbGF0ZSg5Ljg1NTE3KSI+JiN4YTsJCQk8dGl0bGUgaWQ9InRpdGxlNDk4MjUiPlNoZWV0LjQ3MjE8L3RpdGxlPiYjeGE7CQkJPHBhdGggaWQ9InBhdGg0OTgyNyIgaW5rc2NhcGU6Y29ubmVjdG9yLWN1cnZhdHVyZT0iMCIgc3R5bGU9ImZpbGw6I0FCRDlFQzsiIGQ9Ik0wLjI1LDE5Ljk1Yy0wLjA0LDAtMC4wNy0wLjAzLTAuMTItMC4wMyAgICAgQzAuMDQsMTkuODcsMCwxOS44LDAsMTkuNzFjMC04Ljc2LDAtOC43NiwwLTguNzZjMC0wLjA3LDAuMDQtMC4xNiwwLjEzLTAuMTljNy43Mi00LjM5LDcuNzItNC4zOSw3LjcyLTQuMzkgICAgIGMwLjA4LTAuMDQsMC4xNy0wLjA0LDAuMjUsMGMwLjA0LDAuMDQsMC4xMSwwLjEyLDAuMTEsMC4yMWMwLDguNzYsMCw4Ljc2LDAsOC43NmMwLDAuMDctMC4wNywwLjE2LTAuMTEsMC4xOSAgICAgYy03LjcyLDQuMzktNy43Miw0LjM5LTcuNzIsNC4zOUMwLjM0LDE5LjkyLDAuMjksMTkuOTUsMC4yNSwxOS45NXoiLz4mI3hhOwkJPC9nPiYjeGE7CTwvZz4mI3hhOzwvZz4mI3hhOzwvc3ZnPg==;" parent="1" vertex="1">
          <mxGeometry x="520" y="438" width="45" height="50" as="geometry"/>
        </mxCell>
        <mxCell id="wbQet9Np8xLQlqZNyyLJ-31" style="edgeStyle=orthogonalEdgeStyle;rounded=0;orthogonalLoop=1;jettySize=auto;html=1;" parent="1" edge="1">
          <mxGeometry relative="1" as="geometry">
            <mxPoint x="499.5" y="478" as="sourcePoint"/>
            <mxPoint x="299.5" y="478" as="targetPoint"/>
          </mxGeometry>
        </mxCell>
        <mxCell id="wbQet9Np8xLQlqZNyyLJ-32" value="OK !" style="text;html=1;resizable=0;points=[];align=center;verticalAlign=middle;labelBackgroundColor=#ffffff;" parent="wbQet9Np8xLQlqZNyyLJ-31" vertex="1" connectable="0">
          <mxGeometry x="-0.2157" y="5" relative="1" as="geometry">
            <mxPoint x="-21.5" y="15" as="offset"/>
          </mxGeometry>
        </mxCell>
        <mxCell id="wbQet9Np8xLQlqZNyyLJ-33" value="" style="shape=image;html=1;verticalAlign=top;verticalLabelPosition=bottom;labelBackgroundColor=#ffffff;imageAspect=0;aspect=fixed;image=https://cdn2.iconfinder.com/data/icons/christmas-46/64/christmas-icon-cookie-128.png" parent="1" vertex="1">
          <mxGeometry x="389.5" y="369" width="20" height="20" as="geometry"/>
        </mxCell>
        <mxCell id="wbQet9Np8xLQlqZNyyLJ-36" value="" style="shape=image;html=1;verticalAlign=top;verticalLabelPosition=bottom;labelBackgroundColor=#ffffff;imageAspect=0;aspect=fixed;image=https://cdn2.iconfinder.com/data/icons/christmas-46/64/christmas-icon-cookie-128.png" parent="1" vertex="1">
          <mxGeometry x="390" y="449" width="20" height="20" as="geometry"/>
        </mxCell>
      </root>
    </mxGraphModel>
  </diagram>
</mxfile>
